# Blender v2.79 (sub 0) OBJ File: ''
# www.blender.org
mtllib DoorL.mtl
o Cube.001
v 0.342809 0.034736 3.346892
v -0.342809 0.034736 3.346891
v 0.342808 7.794585 3.346893
v -0.342809 7.794585 3.346891
v 0.342809 0.034736 0.902915
v -0.342809 0.034736 0.902914
v 0.342808 7.794585 0.902916
v -0.342809 7.794585 0.902914
v 0.342808 2.621352 3.346892
v 0.342808 5.207968 3.346893
v -0.342809 2.621352 3.346891
v -0.342809 5.207968 3.346891
v -0.342809 5.207968 0.276738
v -0.342809 2.621352 0.276738
v 0.342809 5.207968 0.276740
v 0.342809 2.621352 0.276740
vn 0.0000 -1.0000 -0.0000
vn 0.0000 1.0000 0.0000
vn 1.0000 0.0000 0.0000
vn -0.0000 -0.0000 1.0000
vn -1.0000 0.0000 -0.0000
vn 0.0000 -0.2353 -0.9719
vn 0.0000 0.0000 -1.0000
vn 0.0000 0.2353 -0.9719
usemtl Material.001
s off
f 5//1 1//1 2//1 6//1
f 7//2 8//2 4//2 3//2
f 15//3 7//3 3//3 10//3
f 10//4 3//4 4//4 12//4
f 12//5 4//5 8//5 13//5
f 2//5 11//5 14//5 6//5
f 11//5 12//5 13//5 14//5
f 1//4 9//4 11//4 2//4
f 9//4 10//4 12//4 11//4
f 5//3 16//3 9//3 1//3
f 16//3 15//3 10//3 9//3
f 6//6 16//6 5//6
f 14//6 16//6 6//6
f 14//7 15//7 16//7
f 13//7 15//7 14//7
f 13//8 7//8 15//8
f 8//8 7//8 13//8
