# Blender v2.79 (sub 0) OBJ File: ''
# www.blender.org
mtllib DoorR.mtl
o Cube.001
v 0.342809 0.034736 -3.225299
v -0.342808 0.034736 -3.225301
v 0.342809 7.794585 -3.225298
v -0.342809 7.794585 -3.225300
v 0.342809 0.034736 -0.284661
v -0.342809 0.034736 -0.284662
v 0.342808 7.794585 -0.284660
v -0.342809 7.794585 -0.284662
v 0.342809 2.621352 -3.225299
v 0.342809 5.207968 -3.225299
v -0.342808 2.621352 -3.225300
v -0.342809 5.207968 -3.225300
v -0.342809 5.207968 -0.910837
v -0.342809 2.621352 -0.910837
v 0.342809 5.207968 -0.910836
v 0.342809 2.621352 -0.910836
vn -1.0000 0.0000 -0.0000
vn 0.0000 0.0000 -1.0000
vn 1.0000 -0.0000 0.0000
vn 0.0000 1.0000 0.0000
vn 0.0000 -1.0000 0.0000
vn -0.0000 0.2353 0.9719
vn -0.0000 -0.0000 1.0000
vn -0.0000 -0.2353 0.9719
usemtl Material
s off
f 13//1 8//1 4//1 12//1
f 9//2 1//2 2//2 11//2
f 10//3 3//3 7//3 15//3
f 3//4 4//4 8//4 7//4
f 1//5 5//5 6//5 2//5
f 1//3 9//3 16//3 5//3
f 9//3 10//3 15//3 16//3
f 3//2 10//2 12//2 4//2
f 10//2 9//2 11//2 12//2
f 6//1 14//1 11//1 2//1
f 14//1 13//1 12//1 11//1
f 16//6 14//6 5//6
f 14//7 16//7 15//7
f 13//7 14//7 15//7
f 13//8 15//8 7//8
f 8//8 13//8 7//8
f 14//6 6//6 5//6
